<?xml version="1.0" standalone="no"?>
<!DOCTYPE svg PUBLIC "-//W3C//DTD SVG 20010904//EN"
 "http://www.w3.org/TR/2001/REC-SVG-20010904/DTD/svg10.dtd">
<svg version="1.0" xmlns="http://www.w3.org/2000/svg"
 width="169.000000pt" height="110.000000pt" viewBox="0 0 169.000000 110.000000"
 preserveAspectRatio="xMidYMid meet">
<metadata>
Created by potrace 1.16, written by Peter Selinger 2001-2019
</metadata>
<g transform="translate(0.000000,110.000000) scale(0.100000,-0.100000)"
fill="#000000" stroke="none">
<path d="M866 939 c-43 -46 -106 -78 -153 -79 l-33 0 0 -61 c0 -44 6 -71 20
-94 34 -56 43 -55 122 9 l36 29 -21 18 c-16 12 -22 28 -22 57 0 23 3 44 7 47
12 12 78 -7 103 -31 23 -21 25 -30 25 -104 0 -66 -3 -80 -16 -80 -27 0 -118
-48 -161 -85 -23 -20 -55 -62 -72 -97 -26 -51 -31 -73 -31 -132 0 -39 3 -81 6
-93 l6 -21 49 25 c94 47 194 41 261 -15 l31 -26 16 24 c8 14 32 42 53 63 l37
39 -26 22 c-19 17 -27 34 -31 74 -5 58 -17 67 -27 22 -9 -40 -39 -59 -116 -71
-104 -16 -158 -38 -202 -82 l-40 -40 5 57 c10 124 126 210 319 239 l77 11 4
105 c3 63 10 118 19 136 14 29 13 30 -43 87 -57 58 -76 70 -133 82 -26 5 -35
1 -69 -35z"/>
<path d="M1326 905 c-43 -33 -67 -45 -92 -45 -41 0 -41 -3 -9 -42 19 -23 25
-41 25 -79 0 -48 -1 -49 -30 -49 -25 0 -30 -4 -30 -25 0 -21 5 -25 31 -25 l31
0 -3 -122 c-4 -107 -7 -127 -26 -154 l-22 -31 35 -16 c19 -10 44 -33 55 -52
l21 -35 22 32 c12 18 38 42 58 53 l37 21 -27 27 c-26 26 -27 32 -30 152 l-4
125 26 0 c22 0 27 -5 32 -40 11 -68 24 -33 24 65 0 98 -13 133 -24 65 -5 -34
-10 -40 -31 -40 -25 0 -25 1 -25 80 0 90 17 145 49 155 30 9 26 25 -7 25 -18
0 -49 -16 -86 -45z"/>
<path d="M466 743 c-34 -40 -67 -59 -121 -68 -22 -3 -53 -9 -68 -12 l-29 -5
21 -22 c49 -52 52 -209 6 -265 -26 -30 -24 -41 7 -41 29 0 79 -28 120 -68 l37
-35 44 40 c24 22 60 46 80 52 50 17 47 30 -6 24 -54 -6 -101 16 -122 57 -17
33 -22 264 -6 275 25 15 81 -109 81 -177 0 -17 4 -27 10 -23 6 3 10 19 10 34
0 32 47 130 66 138 8 3 -2 19 -30 46 -23 23 -48 52 -56 63 -15 22 -15 22 -44
-13z"/>
</g>
</svg>
