<?xml version="1.0" standalone="no"?>
<!DOCTYPE svg PUBLIC "-//W3C//DTD SVG 20010904//EN"
 "http://www.w3.org/TR/2001/REC-SVG-20010904/DTD/svg10.dtd">
<svg version="1.0" xmlns="http://www.w3.org/2000/svg"
 width="733.000000pt" height="162.000000pt" viewBox="0 0 733.000000 162.000000"
 preserveAspectRatio="xMidYMid meet">
<metadata>
Created by potrace 1.16, written by Peter Selinger 2001-2019
</metadata>
<g transform="translate(0.000000,162.000000) scale(0.100000,-0.100000)"
fill="#000000" stroke="none">
<path d="M1395 1301 c-51 -22 -59 -81 -16 -110 l25 -16 -18 27 c-22 33 -9 64
31 74 42 11 57 -7 64 -72 7 -71 24 -127 55 -175 l23 -37 -35 8 c-46 11 -82 35
-96 66 l-11 24 -19 -31 c-10 -17 -36 -38 -57 -47 l-38 -16 21 -29 c18 -25 21
-43 21 -130 0 -86 -3 -108 -21 -138 l-21 -35 49 -18 c27 -9 69 -36 93 -59 l44
-42 25 31 c32 40 119 84 167 84 l37 0 -14 28 c-37 75 -38 193 -3 263 l18 36
-36 34 c-61 59 -90 149 -63 200 9 17 7 19 -16 19 -15 0 -49 14 -75 30 -51 33
-102 45 -134 31z m163 -496 l3 -159 -23 20 c-13 11 -35 28 -50 37 -27 17 -28
20 -27 110 1 106 6 124 40 143 51 29 54 22 57 -151z"/>
<path d="M2406 1259 c-43 -46 -106 -78 -153 -79 l-33 0 0 -61 c0 -44 6 -71 20
-94 34 -56 43 -55 122 9 l36 29 -21 18 c-16 12 -22 28 -22 57 0 23 3 44 7 47
12 12 78 -7 103 -31 23 -21 25 -30 25 -104 0 -66 -3 -80 -16 -80 -27 0 -118
-48 -161 -85 -23 -20 -55 -62 -72 -97 -26 -51 -31 -73 -31 -132 0 -39 3 -81 6
-93 l6 -22 50 25 c94 48 193 42 260 -14 l31 -26 16 24 c8 14 32 42 53 63 l37
39 -26 22 c-19 17 -27 34 -31 74 -5 58 -17 67 -27 22 -9 -40 -39 -59 -116 -71
-104 -16 -158 -38 -202 -82 l-40 -40 5 57 c10 125 142 220 336 242 l60 6 4
107 c3 63 10 118 19 136 14 29 13 30 -43 87 -57 58 -76 70 -133 82 -26 5 -35
1 -69 -35z"/>
<path d="M5105 1280 c-8 -24 -100 -80 -132 -80 -28 0 -28 -3 -1 -40 15 -21 23
-49 26 -90 l4 -60 -36 0 c-29 0 -36 -4 -36 -20 0 -16 7 -20 35 -20 l35 0 0
-120 c0 -126 -11 -171 -46 -184 -12 -4 -2 -14 37 -34 30 -15 63 -42 75 -59
l21 -32 29 30 c35 37 68 55 117 64 55 11 45 22 -19 21 -47 0 -59 3 -74 22 -21
26 -33 115 -28 217 l3 70 30 0 c27 0 30 -3 33 -37 6 -71 22 -38 22 45 0 99 14
153 47 189 l25 26 -50 26 c-27 14 -61 39 -75 56 -30 36 -34 36 -42 10z"/>
<path d="M2864 1225 c-42 -33 -67 -45 -91 -45 -40 0 -40 -3 -8 -42 19 -23 25
-41 25 -79 0 -48 -1 -49 -30 -49 -25 0 -30 -4 -30 -25 0 -21 5 -25 30 -25 l30
0 0 -108 c0 -94 -3 -115 -23 -154 l-23 -46 33 -16 c19 -9 43 -32 54 -51 l21
-35 22 32 c12 18 38 42 58 53 l37 21 -27 27 c-26 26 -27 32 -30 152 l-4 125
26 0 c22 0 27 -5 32 -40 11 -68 24 -33 24 65 0 98 -13 133 -24 65 -5 -34 -10
-40 -31 -40 -25 0 -25 1 -25 80 0 90 17 145 49 155 31 9 26 25 -8 25 -19 0
-49 -16 -87 -45z"/>
<path d="M632 1070 c-27 -35 -82 -66 -137 -75 -22 -3 -50 -8 -63 -11 l-23 -5
23 -32 c20 -28 23 -44 23 -129 0 -85 -3 -100 -23 -127 -17 -23 -19 -32 -10
-35 7 -3 30 -10 50 -16 21 -6 57 -30 81 -53 l43 -42 22 27 c13 15 49 40 82 55
32 15 59 31 59 34 1 4 -19 4 -43 2 -53 -6 -108 17 -125 53 -13 30 -15 270 -2
279 16 9 61 -80 71 -140 5 -32 11 -60 13 -62 3 -2 7 15 11 38 7 47 37 109 61
129 14 12 12 18 -28 59 -25 25 -49 54 -54 64 -8 16 -11 14 -31 -13z"/>
<path d="M1021 1069 c-28 -38 -113 -79 -165 -79 -37 0 -38 -1 -23 -18 41 -45
46 -213 8 -277 l-18 -31 49 -18 c27 -9 69 -36 93 -59 l44 -42 27 33 c31 40
115 82 162 82 l33 0 -16 30 c-35 68 -28 237 12 283 15 16 14 17 -3 17 -32 1
-99 36 -141 74 l-40 35 -22 -30z m21 -112 c36 -33 39 -51 36 -192 l-3 -120
-47 46 -48 46 0 132 c0 146 0 146 62 88z"/>
<path d="M1994 1060 c-44 -41 -120 -70 -182 -70 -33 0 -34 -1 -19 -18 52 -57
63 -186 23 -266 -21 -42 -22 -48 -7 -53 55 -17 81 -32 118 -66 l43 -39 46 40
c25 23 61 46 80 52 39 13 47 34 9 24 -62 -15 -145 30 -145 79 0 19 8 26 38 35
51 16 85 54 117 135 15 38 25 70 23 71 -1 1 -18 13 -36 25 -18 12 -40 38 -50
56 l-17 34 -41 -39z"/>
<path d="M5531 1069 c-28 -38 -113 -79 -165 -79 -37 0 -38 -1 -23 -18 41 -45
46 -213 8 -277 l-18 -31 49 -18 c27 -9 69 -36 93 -59 l44 -42 27 33 c31 40
115 82 162 82 l33 0 -16 30 c-35 68 -28 237 12 283 15 16 14 17 -3 17 -32 1
-99 36 -141 74 l-40 35 -22 -30z m21 -112 c36 -33 39 -51 36 -192 l-3 -120
-47 46 -48 46 0 132 c0 146 0 146 62 88z"/>
<path d="M4702 1066 c-16 -35 -93 -68 -174 -74 l-69 -5 22 -23 c19 -20 23 -39
27 -109 l4 -84 37 24 c44 31 108 33 141 7 18 -15 23 -31 28 -90 3 -52 1 -72
-7 -72 -21 0 -69 29 -89 54 l-19 25 -67 -35 c-69 -37 -86 -56 -86 -98 0 -31
11 -33 28 -6 20 32 83 27 117 -9 l27 -28 27 25 c36 34 117 71 174 78 47 7 47
7 30 26 -14 16 -19 41 -21 120 -4 93 -5 98 -21 84 -23 -21 -85 -46 -114 -46
-14 0 -36 9 -51 21 -23 18 -26 28 -26 80 0 47 3 59 16 59 26 0 54 -19 83 -60
l28 -38 16 28 c9 15 34 36 56 47 l39 19 -45 24 c-24 13 -55 36 -68 52 -13 15
-26 28 -28 28 -2 0 -9 -11 -15 -24z"/>
<path d="M3315 1036 c-36 -74 -113 -75 -149 -3 l-18 38 -19 -30 c-10 -17 -34
-39 -54 -48 l-34 -16 24 -25 c52 -52 57 -214 8 -272 -18 -22 -21 -30 -10 -30
17 0 68 -45 84 -74 10 -17 13 -16 47 22 21 23 46 44 57 47 18 6 18 7 -4 36
-18 26 -22 46 -25 138 -3 87 -1 109 11 120 35 28 87 -46 87 -124 0 -58 16 -40
28 31 7 43 20 77 37 100 l27 35 -27 21 c-15 12 -32 33 -39 48 l-11 26 -20 -40z"/>
<path d="M3561 1051 c-8 -17 -29 -40 -48 -52 l-34 -21 30 -19 c17 -10 39 -35
50 -56 13 -24 20 -31 21 -20 0 30 54 77 89 77 37 0 51 -22 51 -81 0 -34 -3
-40 -12 -31 -18 18 -57 14 -89 -9 -22 -16 -41 -20 -75 -17 -37 3 -43 1 -37
-12 3 -8 8 -35 11 -59 3 -33 -1 -50 -16 -71 l-21 -27 24 -13 c14 -7 33 -30 43
-52 l20 -38 12 30 c15 35 55 60 99 60 33 0 86 -39 97 -72 6 -20 8 -19 25 15
11 20 32 44 47 54 15 9 29 18 31 19 2 2 -6 15 -18 30 -18 23 -21 40 -21 128 0
83 4 107 20 133 l20 33 -30 15 c-16 8 -39 32 -49 53 -15 28 -20 32 -21 16 0
-25 -33 -62 -68 -75 -50 -19 -108 12 -130 70 l-8 24 -13 -32z"/>
<path d="M4039 1048 c-8 -17 -31 -40 -51 -50 l-37 -19 25 -36 c21 -31 24 -47
24 -128 0 -80 -3 -97 -23 -127 l-24 -34 29 -17 c15 -9 38 -32 49 -52 l22 -36
15 31 c14 29 50 64 73 72 6 2 4 18 -6 40 -18 44 -21 195 -4 232 22 47 59 44
81 -7 19 -46 15 -185 -6 -228 -10 -20 -13 -35 -7 -37 23 -8 59 -43 73 -72 l15
-31 21 35 c11 19 33 42 49 52 15 10 30 19 32 20 1 2 -6 13 -18 25 -27 29 -34
70 -29 163 2 57 8 82 25 105 l22 29 -34 21 c-19 11 -44 35 -54 52 l-20 33 -10
-26 c-26 -69 -120 -91 -169 -40 -15 15 -31 35 -37 45 -9 15 -12 13 -26 -15z"/>
<path d="M5901 1052 c-8 -19 -30 -42 -52 -56 -39 -22 -39 -23 -19 -41 26 -24
40 -76 40 -152 0 -68 -12 -111 -38 -132 -13 -10 -14 -14 -4 -18 25 -9 81 -64
88 -85 6 -19 7 -18 24 10 19 32 70 72 91 72 7 0 3 10 -11 25 -28 30 -49 171
-34 232 18 76 85 24 99 -77 8 -59 25 -67 25 -11 0 51 17 100 46 132 l24 25
-30 22 c-16 12 -33 34 -36 47 -7 27 -24 34 -24 11 0 -28 -50 -76 -80 -76 -37
0 -78 34 -88 73 l-8 31 -13 -32z"/>
<path d="M6336 1052 c-9 -17 -34 -42 -56 -54 l-39 -23 20 -21 c47 -50 46 -236
-1 -279 -19 -17 -19 -18 13 -39 17 -12 41 -36 53 -54 l22 -32 12 30 c10 25 32
45 78 75 1 1 -5 18 -13 38 -9 23 -15 68 -15 121 0 117 23 161 71 136 26 -14
34 -50 34 -150 -1 -58 -6 -94 -17 -115 -16 -29 -15 -30 13 -47 16 -10 37 -34
46 -53 l17 -35 22 38 c13 21 34 44 48 51 24 13 24 14 8 39 -13 20 -17 50 -17
134 0 96 2 110 21 129 28 28 58 13 74 -37 16 -47 9 -180 -12 -220 -14 -30 -14
-31 14 -47 15 -9 38 -32 50 -52 l21 -37 20 35 c11 20 35 44 53 53 33 18 33 18
14 39 -29 31 -40 70 -40 143 0 71 28 152 52 152 7 1 -4 10 -24 21 -21 10 -49
36 -63 56 -14 21 -25 32 -25 26 0 -7 -14 -28 -31 -48 -26 -29 -38 -35 -70 -35
-48 0 -83 21 -99 61 l-13 30 -18 -29 c-24 -42 -58 -62 -99 -62 -44 0 -78 23
-95 63 l-13 31 -16 -32z"/>
</g>
</svg>
