<?xml version="1.0" standalone="no"?>
<!DOCTYPE svg PUBLIC "-//W3C//DTD SVG 20010904//EN"
 "http://www.w3.org/TR/2001/REC-SVG-20010904/DTD/svg10.dtd">
<svg version="1.0" xmlns="http://www.w3.org/2000/svg"
 width="197.000000pt" height="145.000000pt" viewBox="0 0 197.000000 145.000000"
 preserveAspectRatio="xMidYMid meet">
<metadata>
Created by potrace 1.16, written by Peter Selinger 2001-2019
</metadata>
<g transform="translate(0.000000,145.000000) scale(0.100000,-0.100000)"
fill="#000000" stroke="none">
<path d="M1360 1075 c0 -228 -1 -235 -20 -235 -17 0 -20 -7 -20 -45 0 -38 3
-45 20 -45 19 0 20 -7 20 -220 l0 -220 104 0 c99 0 106 1 137 27 59 50 76 137
39 199 -23 36 -49 49 -84 40 -22 -5 -46 -43 -46 -71 0 -24 31 -47 56 -41 20 5
24 3 24 -17 0 -36 -19 -47 -82 -47 l-58 0 0 175 0 175 90 0 90 0 0 45 0 45
-90 0 -90 0 0 213 0 213 -45 22 -45 22 0 -235z"/>
<path d="M310 795 l0 -45 67 0 66 0 -71 -74 c-100 -103 -100 -102 46 -248 151
-151 151 -151 266 -38 l81 79 -59 -29 c-36 -18 -74 -30 -98 -30 -36 0 -48 7
-114 72 -49 47 -74 79 -74 94 0 26 124 144 152 144 10 0 35 -16 57 -35 35 -32
43 -35 102 -35 l63 0 -49 50 -49 50 57 0 57 0 0 45 0 45 -250 0 -250 0 0 -45z"/>
<path d="M891 815 c-39 -33 -66 -103 -58 -151 10 -63 75 -112 113 -86 15 9 34
47 34 66 0 25 -31 48 -56 42 -20 -5 -24 -3 -24 17 0 41 17 47 142 47 l118 0 0
-49 c0 -43 -4 -53 -32 -76 -17 -14 -66 -44 -109 -66 -43 -21 -94 -53 -113 -70
-35 -30 -36 -33 -36 -105 l0 -74 200 0 200 0 0 50 0 50 -146 0 c-112 0 -145 3
-142 13 4 12 32 31 177 120 108 66 121 90 121 209 l0 88 -179 0 c-177 0 -180
0 -210 -25z"/>
</g>
</svg>
