<?xml version="1.0" standalone="no"?>
<!DOCTYPE svg PUBLIC "-//W3C//DTD SVG 20010904//EN"
 "http://www.w3.org/TR/2001/REC-SVG-20010904/DTD/svg10.dtd">
<svg version="1.0" xmlns="http://www.w3.org/2000/svg"
 width="690.000000pt" height="155.000000pt" viewBox="0 0 690.000000 155.000000"
 preserveAspectRatio="xMidYMid meet">
<metadata>
Created by potrace 1.16, written by Peter Selinger 2001-2019
</metadata>
<g transform="translate(0.000000,155.000000) scale(0.100000,-0.100000)"
fill="white" stroke="none">
<path d="M2970 1205 c0 -228 -1 -235 -20 -235 -17 0 -20 -7 -20 -45 0 -38 3
-45 20 -45 19 0 20 -7 20 -220 l0 -220 107 0 106 0 38 40 c60 63 65 147 12
202 -31 33 -65 36 -93 8 -22 -22 -25 -51 -9 -82 8 -16 17 -19 40 -14 25 5 29
3 29 -17 0 -36 -19 -47 -82 -47 l-58 0 0 175 0 175 90 0 90 0 0 45 0 45 -90 0
-90 0 0 213 0 213 -45 22 -45 22 0 -235z"/>
<path d="M5260 1429 c-90 -36 -145 -159 -157 -356 -5 -91 -8 -103 -25 -103
-15 0 -18 -8 -18 -45 0 -38 3 -45 20 -45 20 0 20 -7 20 -365 l0 -365 45 0 45
0 0 365 0 365 40 0 40 0 0 45 0 45 -61 0 -61 0 7 73 c9 83 28 165 50 208 18
34 69 69 103 69 20 0 22 4 22 60 0 56 -2 60 -22 59 -13 0 -34 -5 -48 -10z"/>
<path d="M1760 1200 l0 -230 -180 0 -180 0 0 -45 0 -45 46 0 45 0 -55 -72
c-83 -106 -82 -108 62 -251 138 -136 148 -140 217 -76 l45 42 0 -42 0 -41 45
0 45 0 0 220 c0 189 2 220 15 220 11 0 15 12 15 45 0 33 -4 45 -15 45 -13 0
-15 30 -15 210 l0 210 -40 20 c-21 11 -42 20 -45 20 -3 0 -5 -103 -5 -230z m0
-395 c0 -41 -3 -75 -7 -75 -5 0 -17 7 -27 15 -47 35 -116 7 -116 -47 0 -55 66
-90 92 -49 16 26 38 9 38 -29 0 -32 -68 -100 -100 -100 -13 0 -41 29 -84 88
-36 48 -65 92 -66 99 0 6 27 48 61 92 l60 81 75 0 74 0 0 -75z"/>
<path d="M6475 1225 c-62 -32 -75 -60 -75 -162 l0 -93 -120 0 -120 0 0 -45 c0
-41 2 -45 25 -45 l25 0 0 -220 0 -220 45 0 45 0 0 220 0 220 40 0 40 0 0 -220
0 -220 45 0 45 0 0 220 0 220 45 0 45 0 0 -268 c0 -283 -6 -337 -50 -422 l-20
-40 39 0 c37 0 42 4 66 45 49 82 55 128 55 418 l0 267 25 0 c23 0 25 4 25 45
l0 45 -120 0 -120 0 0 84 c0 93 11 116 56 116 21 0 23 -2 12 -19 -10 -17 -9
-23 6 -40 26 -29 67 -27 96 4 20 21 22 30 14 52 -12 35 -68 73 -108 73 -17 0
-44 -7 -61 -15z"/>
<path d="M300 925 l0 -45 72 0 72 0 -72 -73 c-74 -75 -86 -102 -62 -147 5 -10
59 -64 120 -119 81 -75 116 -101 136 -101 20 0 46 20 103 76 73 72 74 74 34
54 -65 -33 -115 -37 -156 -11 -43 26 -137 125 -137 144 0 20 135 147 157 147
11 0 34 -16 53 -35 32 -33 38 -35 99 -35 l65 0 -49 50 -49 50 62 0 62 0 0 45
0 45 -255 0 -255 0 0 -45z"/>
<path d="M830 925 l0 -45 62 0 62 0 -72 -73 c-102 -103 -102 -103 46 -250 157
-154 147 -154 298 -4 106 104 114 115 114 151 0 35 -7 45 -72 107 l-73 68 63
1 62 0 0 45 0 45 -245 0 -245 0 0 -45z m332 -142 c38 -37 68 -74 68 -82 0 -23
-131 -151 -154 -151 -24 0 -156 127 -156 149 0 23 131 151 154 151 12 0 50
-29 88 -67z"/>
<path d="M1930 925 l0 -45 62 0 62 0 -72 -73 c-93 -94 -95 -114 -19 -194 90
-96 185 -173 214 -173 19 0 47 21 107 80 l81 79 -59 -29 c-32 -17 -71 -30 -87
-30 -36 0 -81 20 -76 34 2 6 56 52 119 101 64 50 120 93 124 98 4 4 -14 30
-41 57 l-49 50 47 0 47 0 0 45 0 45 -230 0 -230 0 0 -45z m297 -107 c18 -18
33 -36 33 -41 0 -7 -63 -92 -137 -186 -6 -8 -93 82 -99 102 -5 15 11 36 62 88
39 39 77 69 88 69 11 0 35 -14 53 -32z"/>
<path d="M2502 945 c-77 -64 -83 -177 -12 -232 50 -40 120 30 84 84 -11 18
-22 24 -40 20 -19 -3 -24 0 -24 17 0 40 18 46 142 46 l118 0 0 -49 c0 -43 -4
-53 -32 -76 -17 -14 -66 -44 -109 -66 -43 -21 -94 -53 -113 -70 -35 -30 -36
-33 -36 -105 l0 -74 200 0 200 0 0 50 0 50 -145 0 c-80 0 -145 4 -145 8 0 16
45 49 133 98 49 27 104 66 123 86 34 38 34 38 34 138 l0 100 -174 0 c-171 0
-175 0 -204 -25z"/>
<path d="M3290 925 c0 -33 4 -45 15 -45 13 0 15 -31 15 -220 l0 -220 50 0 50
0 0 146 c0 80 5 165 11 189 12 48 61 105 90 105 16 0 19 8 19 46 l0 47 -32 -7
c-18 -3 -45 -15 -60 -26 l-28 -21 0 26 c0 24 -2 25 -65 25 l-65 0 0 -45z"/>
<path d="M3570 925 l0 -45 180 0 180 0 0 -80 c0 -44 -3 -80 -7 -80 -3 0 -37
29 -74 65 -91 89 -98 88 -210 -22 -117 -114 -117 -117 -2 -234 81 -83 89 -89
127 -89 38 0 46 5 103 67 l62 68 1 -67 0 -68 45 0 45 0 0 220 c0 189 2 220 15
220 11 0 15 12 15 45 l0 45 -240 0 -240 0 0 -45z m236 -221 c26 -21 44 -44 44
-56 0 -26 -69 -118 -88 -118 -15 0 -35 21 -78 83 l-27 38 43 44 c24 25 48 45
54 45 5 0 29 -16 52 -36z"/>
<path d="M4080 925 c0 -43 1 -45 30 -45 l30 0 0 -220 0 -220 43 0 43 0 11 123
c12 123 33 239 52 290 9 24 16 27 56 27 l45 0 0 -232 c0 -270 -9 -349 -50
-436 l-29 -63 42 3 c41 3 43 5 74 68 46 91 53 156 53 473 l0 277 -74 0 c-41 0
-82 -3 -91 -6 -21 -9 -52 -71 -69 -142 l-14 -57 -1 103 -1 102 -75 0 -75 0 0
-45z"/>
<path d="M4540 925 c0 -38 3 -45 20 -45 15 0 20 -7 20 -29 0 -37 40 -72 149
-131 114 -61 141 -89 141 -146 l0 -44 -118 0 c-124 0 -142 6 -142 46 0 17 5
20 24 17 17 -4 28 2 40 18 21 31 20 51 -5 83 -29 36 -60 33 -98 -9 -38 -43
-42 -104 -11 -164 39 -78 50 -81 251 -81 l179 0 0 90 c0 134 -15 155 -175 240
-87 47 -125 76 -125 97 0 17 162 18 209 2 32 -11 41 -35 19 -57 -16 -16 -5
-15 38 3 31 13 36 19 32 40 -4 19 -1 25 13 25 16 0 19 8 19 45 l0 45 -240 0
-240 0 0 -45z"/>
<path d="M5310 925 l0 -45 62 0 62 0 -72 -73 c-102 -103 -102 -103 46 -250 95
-94 124 -117 147 -117 23 0 52 23 147 117 148 147 148 147 46 250 l-72 73 62
0 62 0 0 45 0 45 -245 0 -245 0 0 -45z m332 -142 c38 -37 68 -74 68 -82 0 -23
-131 -151 -154 -151 -25 0 -156 128 -156 152 0 24 130 147 155 148 11 0 49
-29 87 -67z"/>
<path d="M5860 925 c0 -38 3 -45 20 -45 19 0 20 -7 20 -220 l0 -220 45 0 45 0
0 133 c0 162 17 239 60 280 17 15 39 27 50 27 17 0 20 7 20 45 0 41 -2 45 -24
45 -13 0 -40 -11 -60 -25 -20 -14 -39 -25 -41 -25 -3 0 -5 11 -5 25 0 24 -2
25 -65 25 l-65 0 0 -45z"/>
</g>
</svg>
